<?xml version="1.0" encoding="UTF-8" standalone="no"?>
<svg
   xmlns:dc="http://purl.org/dc/elements/1.1/"
   xmlns:cc="http://creativecommons.org/ns#"
   xmlns:rdf="http://www.w3.org/1999/02/22-rdf-syntax-ns#"
   xmlns:svg="http://www.w3.org/2000/svg"
   xmlns="http://www.w3.org/2000/svg"
   viewBox="0 0 92.629341 33.821854"
   height="33.821854"
   width="92.629341"
   xml:space="preserve"
   id="svg2"
   version="1.1"><metadata
     id="metadata8"><rdf:RDF><cc:Work
         rdf:about=""><dc:format>image/svg+xml</dc:format><dc:type
           rdf:resource="http://purl.org/dc/dcmitype/StillImage" /></cc:Work></rdf:RDF></metadata><defs
     id="defs6"><clipPath
       id="clipPath20"
       clipPathUnits="userSpaceOnUse"><path
         style="clip-rule:evenodd"
         id="path18"
         d="M -1085,2630 H 355 V -370 h -1440 z" /></clipPath><clipPath
       id="clipPath26"
       clipPathUnits="userSpaceOnUse"><path
         id="path24"
         d="M 0,0 H 70 V 26 H 0 Z" /></clipPath><clipPath
       id="clipPath30"
       clipPathUnits="userSpaceOnUse"><path
         style="clip-rule:evenodd"
         id="path28"
         d="M 8.899485,24.63966 C 4.378766,19.25388 0.04425614,12.57446 3.34574e-4,7.581836 -0.01613601,5.702872 0.5745176,4.062955 1.992361,2.820833 4.033341,1.032846 6.281119,0.4011092 8.518374,0.3983242 11.78779,0.3936825 15.03432,1.731424 17.57628,2.763276 21.85726,4.500669 69.17955,25.34891 69.17955,25.34891 c 0.45614,0.23209 0.37059,0.52173 -0.19993,0.37691 -0.23059,-0.05848 -51.51772,-14.16 -51.51772,-14.16 -0.99006,-0.28175 -2.00117,-0.4275 -2.98529,-0.43307 -3.9415,-0.02321 -7.448824,2.19599 -7.420458,6.87344 0.011437,1.83069 0.56366,4.03736 1.843333,6.63347" /></clipPath><clipPath
       id="clipPath34"
       clipPathUnits="userSpaceOnUse"><path
         id="path32"
         d="M 0,0 H 70 V 26 H 0 Z" /></clipPath></defs><g
     transform="matrix(1.3333333,0,0,-1.3333333,0,34.352938)"
     id="g10"><g
       id="g12" /><g
       id="g14"><g
         clip-path="url(#clipPath20)"
         id="g16"><g
           id="g22" /><g
           id="g48"><g
             style="opacity:0.2"
             id="g46"
             clip-path="url(#clipPath26)"><g
               id="g36" /><g
               id="g44"><g
                 id="g42"
                 clip-path="url(#clipPath30)"><g
                   id="g40"
                   clip-path="url(#clipPath34)"><path
                     id="path38"
                     style="fill:#ffffff;fill-opacity:1;fill-rule:nonzero;stroke:none"
                     d="M -5,30.76471 H 74.47201 V -4.601688 H -5 Z" /></g></g></g></g></g></g></g></g></svg>