<?xml version="1.0" encoding="UTF-8" standalone="no"?>
<svg
   xmlns:dc="http://purl.org/dc/elements/1.1/"
   xmlns:cc="http://creativecommons.org/ns#"
   xmlns:rdf="http://www.w3.org/1999/02/22-rdf-syntax-ns#"
   xmlns:svg="http://www.w3.org/2000/svg"
   xmlns="http://www.w3.org/2000/svg"
   viewBox="0 0 106.66666 31.355015"
   height="31.355015"
   width="106.66666"
   xml:space="preserve"
   id="svg2"
   version="1.1"><metadata
     id="metadata8"><rdf:RDF><cc:Work
         rdf:about=""><dc:format>image/svg+xml</dc:format><dc:type
           rdf:resource="http://purl.org/dc/dcmitype/StillImage" /></cc:Work></rdf:RDF></metadata><defs
     id="defs6"><clipPath
       id="clipPath20"
       clipPathUnits="userSpaceOnUse"><path
         style="clip-rule:evenodd"
         id="path18"
         d="M -920,2629 H 520 V -371 H -920 Z" /></clipPath><clipPath
       id="clipPath26"
       clipPathUnits="userSpaceOnUse"><path
         id="path24"
         d="M 0,0 H 80 V 24 H 0 Z" /></clipPath><clipPath
       id="clipPath30"
       clipPathUnits="userSpaceOnUse"><path
         style="clip-rule:evenodd"
         id="path28"
         d="m 27.70408,14.23822 c 0,2.40958 1.75921,4.09221 4.9564,4.09221 1.95056,0 3.54692,-0.62227 4.41166,-1.23133 0.12356,-0.08721 0.34464,-0.29822 0.21212,-0.69057 -0.16957,-0.42284 -0.48082,-1.05873 -0.70414,-1.47181 -0.12987,-0.24029 -0.46168,-0.20898 -0.63166,-0.12299 -0.61619,0.31164 -1.62648,0.83938 -2.55454,0.93635 -0.22799,0.02399 -0.46697,0.037 -0.70759,0.03069 -0.81772,-0.0185 -1.50048,-0.30188 -1.74109,-0.92455 -0.04825,-0.12381 -0.0745,-0.24761 -0.07756,-0.36999 -0.02239,-0.82088 1.12124,-1.11748 2.50691,-1.35513 2.57611,-0.44093 4.52484,-1.19513 4.52484,-3.842769 0,-2.248581 -1.78954,-4.280455 -5.29554,-4.218452 -2.31108,0.04696 -3.9512,0.826776 -4.82979,1.583622 -0.02972,0.025614 -0.36417,0.366123 -0.18504,0.774938 0.2054,0.526722 0.55166,1.13049 0.82342,1.450874 0.15085,0.205728 0.54963,0.238661 0.75686,0.110183 0.72428,-0.449269 1.91636,-1.170336 3.29042,-1.217905 0.1085,-0.00386 0.21578,-0.00468 0.32143,-0.00183 1.23585,0.030087 1.98374,0.498058 1.96807,1.28621 -0.01344,0.694842 -0.9934,1.100609 -2.55372,1.394159 -2.4892,0.46858 -4.49146,1.28783 -4.49146,3.78809 z M 50.31466,10.8071 c -1.75514,-0.02256 -3.36432,-0.50192 -3.41094,-1.871679 -4e-4,-1.086784 0.88286,-1.620418 2.12176,-1.550893 1.18862,0.114249 2.0953,0.629383 2.49469,1.312231 0.14779,0.253095 0.17018,1.200829 0.16122,1.605781 -0.002,0.08579 -0.17282,0.24903 -0.24753,0.28034 -0.37293,0.15693 -0.64876,0.20552 -1.1192,0.22422 z m -5.83988,5.5191 c 0.82078,0.73347 2.44828,1.87514 5.0415,1.81496 3.42193,-0.07115 5.2304,-1.67347 5.39875,-5.50649 C 54.98424,11.0539 54.86943,6.645166 54.84195,5.546592 54.83787,5.389043 54.78474,5.280283 54.57161,5.275811 54.00855,5.253246 52.70614,5.26219 52.10766,5.269712 51.80618,5.284349 51.77096,5.434173 51.7671,5.590705 51.76465,5.69296 51.7557,5.996877 51.74939,6.24428 51.74633,6.375808 51.62256,6.371945 51.59081,6.338199 50.78774,5.482149 49.47312,5.068862 48.07504,5.068862 c -2.12482,0 -4.24311,1.248399 -4.2368,3.7208 0.0063,2.531758 1.80399,3.780978 3.77898,4.074928 1.26454,0.18845 2.69011,0.02094 3.76941,-0.40739 0.06901,-0.02724 0.20988,0.0124 0.2113,0.11039 0.0045,0.32241 -0.01099,0.93736 -0.07308,1.22868 -0.15857,0.74261 -0.77904,1.34008 -2.08226,1.50108 -0.2683,0.03294 -0.53803,0.04391 -0.80856,0.02236 -1.03595,-0.08131 -2.28238,-0.88796 -2.79862,-1.18985 -0.12132,-0.07094 -0.31165,-0.01911 -0.37313,0.06018 -0.30128,0.38828 -1.05854,1.52548 -1.11798,1.70702 -0.05944,0.18133 0.02463,0.3338 0.13048,0.42914 z m 11.56861,-4.71306 c -0.02016,3.53114 2.44318,6.51013 6.44405,6.53636 2.49612,0.01626 4.30988,-1.11382 4.62989,-1.64705 0.06493,-0.12482 0.03155,-0.22972 -0.01385,-0.35555 -0.21109,-0.44541 -0.74504,-1.30634 -1.12551,-1.79423 -0.16204,-0.20776 -0.33792,-0.02968 -0.54229,0.10611 -0.56714,0.37711 -1.64461,0.83878 -2.70538,0.83857 -1.9241,-2e-4 -3.35679,-1.31792 -3.34091,-3.74174 0.01506,-2.326233 1.3875,-3.604312 3.34762,-3.651068 1.02475,-0.025411 2.01754,0.562704 2.55149,1.044296 0.16814,0.146165 0.34158,0.072981 0.53313,-0.076234 C 66.19803,8.488591 66.73727,7.8958 67.03631,7.487799 67.23234,7.261132 67.08577,7.039547 67.01534,6.950303 66.20373,5.924506 64.63628,5.061341 62.56215,5.049956 58.21848,5.019463 56.06374,8.069003 56.04339,11.61314 Z M 76.7769,5.208725 c 0.20397,0.015044 2.37947,0.314895 3.04736,0.467565 0.16571,0.038015 0.22433,0.177065 0.13212,0.314895 -0.37314,0.558435 -1.35351,2.144293 -2.38029,3.564064 -0.94434,1.305111 -1.94018,2.453491 -2.26222,2.894841 -0.07817,0.10754 -0.07409,0.21325 0.0114,0.29659 0.61253,0.59849 3.1744,3.10646 4.13746,4.14263 0.37314,0.40292 0.14922,0.57612 -0.16753,0.67045 -0.61192,0.18214 -1.60145,0.40901 -2.16451,0.52753 -0.23695,0.05001 -0.52275,0.03253 -0.73039,-0.18052 -0.96327,-0.89671 -3.90234,-3.84257 -4.7793,-4.72322 -0.15837,-0.15897 -0.24998,-0.12339 -0.251,0.10348 -0.0071,1.69787 -0.04091,8.96626 -0.10137,10.16221 -0.0045,0.15796 -0.19481,0.2779 -0.30209,0.28339 -0.55166,0.02866 -1.94547,0.037 -2.49469,0.0049 -0.1539,-0.01748 -0.30087,-0.17402 -0.31431,-0.30636 -0.12661,-1.91173 0.05354,-15.94518 0.12906,-17.908343 0.0053,-0.141896 0.11115,-0.251875 0.24611,-0.259804 0.548,-0.031916 1.90313,-0.029883 2.53602,-0.018092 0.31145,0 0.34952,0.218739 0.34952,0.218739 l 0.04702,3.765727 c 0,0 0.03217,0.16751 0.08387,0.223008 0.2229,0.239474 0.84011,0.900165 1.10353,1.155495 0.06331,0.06139 0.16305,0.05692 0.22718,-0.02968 0.31267,-0.42101 1.20429,-1.790571 2.03076,-3.013354 C 75.6697,6.441877 76.37852,5.444541 76.42798,5.374203 76.54259,5.211775 76.67633,5.205066 76.7769,5.208725 Z M 39.77487,5.221736 c 0.19136,-0.00651 1.64298,-0.00508 2.28624,-0.00407 0.2168,-0.00407 0.32937,0.159582 0.3365,0.30412 0.13639,2.752331 0.07817,15.85716 -0.0079,17.92644 -0.0073,0.1791 -0.08407,0.24618 -0.20642,0.26244 -0.55207,0.0738 -2.12074,0.05652 -2.62334,-0.07481 -0.09873,-0.02581 -0.15613,-0.10022 -0.1598,-0.19637 -0.12316,-5.3337 -0.0401,-17.630859 -0.01404,-17.863828 0.02605,-0.232969 0.14778,-0.345795 0.3888,-0.353926 z M 23.16254,11.11732 c -0.33832,0.97335 -1.40297,1.48828 -2.37764,1.15042 l -2.29357,-0.79527 -1.71564,4.93443 2.29397,0.79527 c 0.97447,0.33807 1.4905,1.40087 1.15198,2.37421 -0.33853,0.97356 -1.40277,1.48849 -2.37764,1.15062 l -2.29377,-0.79547 -0.79656,2.29107 c -0.33852,0.97335 -1.40276,1.48828 -2.37743,1.15041 -0.97487,-0.33807 -1.4905,-1.40086 -1.15218,-2.37421 l 0.79655,-2.29107 -4.941134,-1.71312 -0.79655,2.29107 C 5.944601,20.25883 4.880362,20.77416 3.905489,20.43589 2.93082,20.09802 2.41519,19.03523 2.753515,18.06188 L 3.550065,15.77081 1.255887,14.97555 C 0.281217,14.63748 -0.2346169,13.57468 0.1039118,12.60133 0.4424405,11.62778 1.506475,11.11285 2.481348,11.45092 L 4.775526,12.24619 6.490766,7.311751 4.196791,6.516281 C 3.222325,6.178414 2.706288,5.115619 3.04502,4.142271 3.383345,3.168719 4.44738,2.653788 5.422253,2.991655 L 7.716227,3.787125 8.512574,1.495853 C 8.851102,0.5227087 9.915748,0.00757412 10.89021,0.3456439 c 0.97488,0.3378664 1.4903,1.4008651 1.15198,2.3740101 l -0.79655,2.291271 4.94113,1.713117 0.79655,-2.290865 c 0.33833,-0.973348 1.40297,-1.488482 2.37744,-1.150616 0.97487,0.33807 1.4905,1.401069 1.15218,2.374213 l -0.79635,2.290865 2.29398,0.79547 c 0.97446,0.337867 1.4903,1.400861 1.15197,2.374211 z M 10.02018,8.535551 8.304937,13.46999 13.24607,15.1831 14.96151,10.24867 Z" /></clipPath><clipPath
       id="clipPath34"
       clipPathUnits="userSpaceOnUse"><path
         id="path32"
         d="M 0,0 H 80 V 24 H 0 Z" /></clipPath></defs><g
     transform="matrix(1.3333333,0,0,-1.3333333,0,31.677509)"
     id="g10"><g
       id="g12" /><g
       id="g14"><g
         clip-path="url(#clipPath20)"
         id="g16"><g
           id="g22" /><g
           id="g48"><g
             style="opacity:0.2"
             id="g46"
             clip-path="url(#clipPath26)"><g
               id="g36" /><g
               id="g44"><g
                 id="g42"
                 clip-path="url(#clipPath30)"><g
                   id="g40"
                   clip-path="url(#clipPath34)"><path
                     id="path38"
                     style="fill:#ffffff;fill-opacity:1;fill-rule:nonzero;stroke:none"
                     d="M -5,28.75813 H 85 V -4.758129 H -5 Z" /></g></g></g></g></g></g></g></g></svg>