<?xml version="1.0" encoding="UTF-8" standalone="no"?>
<svg
   xmlns:dc="http://purl.org/dc/elements/1.1/"
   xmlns:cc="http://creativecommons.org/ns#"
   xmlns:rdf="http://www.w3.org/1999/02/22-rdf-syntax-ns#"
   xmlns:svg="http://www.w3.org/2000/svg"
   xmlns="http://www.w3.org/2000/svg"
   viewBox="0 0 106.66666 30.997738"
   height="30.997738"
   width="106.66666"
   xml:space="preserve"
   id="svg2"
   version="1.1"><metadata
     id="metadata8"><rdf:RDF><cc:Work
         rdf:about=""><dc:format>image/svg+xml</dc:format><dc:type
           rdf:resource="http://purl.org/dc/dcmitype/StillImage" /></cc:Work></rdf:RDF></metadata><defs
     id="defs6"><clipPath
       id="clipPath20"
       clipPathUnits="userSpaceOnUse"><path
         style="clip-rule:evenodd"
         id="path18"
         d="M -760,2629 H 680 V -371 H -760 Z" /></clipPath><clipPath
       id="clipPath26"
       clipPathUnits="userSpaceOnUse"><path
         id="path24"
         d="M 0,0 H 80 V 24 H 0 Z" /></clipPath><clipPath
       id="clipPath30"
       clipPathUnits="userSpaceOnUse"><path
         style="clip-rule:evenodd"
         id="path28"
         d="M 11.70544,23.62415 C 5.240701,23.62415 0,18.41983 0,11.99998 0,5.580152 5.240701,0.3758453 11.70544,0.3758453 c 6.46476,0 11.70546,5.2043067 11.70546,11.6241347 0,6.41985 -5.2407,11.62417 -11.70546,11.62417 z M 17.05318,6.951595 C 16.86907,6.644058 16.47844,6.52041 16.14442,6.666852 16.07733,6.696266 16.01451,6.735767 15.95118,6.773056 14.7124,7.502302 13.37561,7.953944 11.95466,8.170022 11.08272,8.302613 10.2059,8.348608 9.325493,8.314253 8.186583,8.269779 7.061984,8.112873 5.949344,7.868243 5.836964,7.843535 5.721329,7.821087 5.606973,7.819863 5.262501,7.816161 4.971675,8.058798 4.911204,8.387795 4.847194,8.736166 5.020962,9.0627 5.342734,9.191133 5.41063,9.218257 5.483123,9.235591 5.554827,9.251593 6.464947,9.454478 7.383582,9.607917 8.313086,9.686009 8.831943,9.729589 9.353059,9.746688 9.873148,9.775726 11.4122,9.759615 12.91776,9.553058 14.3789,9.063704 15.18487,8.793802 15.95451,8.4446 16.68547,8.012191 16.74874,7.974777 16.81299,7.937864 16.87147,7.893767 17.1664,7.671272 17.243,7.268669 17.05318,6.951595 Z m 1.43208,3.162495 C 18.22669,9.692143 17.68904,9.560917 17.2421,9.811226 c -0.25214,0.141218 -0.50132,0.288434 -0.75903,0.418904 -1.18154,0.59805 -2.4343,0.98573 -3.73424,1.23008 -1.00089,0.18814 -2.01115,0.28008 -3.084725,0.28459 C 8.32713,11.73924 6.957549,11.57467 5.619832,11.18041 5.401847,11.11617 5.183104,11.11186 4.969527,11.19776 c -0.347569,0.13982 -0.573721,0.48571 -0.561446,0.8517 0.012764,0.38179 0.247193,0.71428 0.617826,0.82667 0.377141,0.11434 0.759937,0.21349 1.144945,0.29839 0.947765,0.20902 1.90831,0.31957 2.878918,0.35615 2.08807,0.0787 4.12786,-0.18954 6.11782,-0.82292 1.00623,-0.32025 1.9688,-0.73958 2.87802,-1.27656 0.04524,-0.02672 0.09015,-0.05401 0.13506,-0.08128 0.47411,-0.28766 0.53072,-0.86681 0.30459,-1.23582 z m 0.13833,3.28808 c -0.50481,0.28365 -1.02149,0.5407 -1.55973,0.75499 -1.0693,0.4257 -2.17751,0.7122 -3.31021,0.91061 -0.78843,0.13811 -1.58281,0.22956 -2.38154,0.2772 -0.83046,0.04954 -1.661483,0.05538 -2.493202,0.01261 C 7.925977,15.30861 6.980518,15.20469 6.047587,15.00457 5.70332,14.93073 5.363081,14.83764 5.022621,14.74729 4.81383,14.69189 4.608088,14.68481 4.400119,14.74524 3.944925,14.8775 3.631162,15.28249 3.617671,15.75673 c -0.013112,0.46066 0.273085,0.88892 0.722767,1.0361 0.329228,0.10777 0.667097,0.19246 1.00514,0.27007 0.836869,0.19211 1.685428,0.31085 2.540796,0.38839 0.908177,0.08233 1.818045,0.10882 2.728526,0.08296 2.2431,-0.06377 4.44255,-0.38951 6.57115,-1.11927 0.86785,-0.29753 1.70319,-0.66684 2.49712,-1.12688 0.28305,-0.16401 0.47306,-0.39512 0.54538,-0.71483 0.01717,-0.07592 0.02131,-0.15475 0.03144,-0.23225 -0.0034,-0.84165 -0.8921,-1.35704 -1.6364,-0.93885 z m 10.34046,-5.600483 1.45291,1.75764 c 1.00583,-0.838541 2.05957,-1.370686 3.3368,-1.370686 1.00583,0 1.61254,0.403133 1.61254,1.064249 v 0.032274 c 0,0.628926 -0.38322,0.951376 -2.25116,1.435196 -2.25112,0.58047 -3.70398,1.20931 -3.70398,3.45073 v 0.03227 c 0,2.0479 1.62846,3.40236 3.91156,3.40236 1.62846,0 3.01748,-0.51597 4.15105,-1.43515 L 36.19646,14.3001 c -0.98984,0.69335 -1.96373,1.11262 -2.90568,1.11262 -0.94195,0 -1.43695,-0.43537 -1.43695,-0.98365 v -0.03223 c 0,-0.74176 0.47901,-0.98361 2.41084,-1.48348 2.26711,-0.59669 3.54438,-1.41905 3.54438,-3.386308 V 9.494778 c 0,-2.241416 -1.69239,-3.499141 -4.10315,-3.499141 -1.69239,0 -3.40069,0.596652 -4.74185,1.80605 z m 29.44649,0.804742 v 4.178551 h -1.06828 v 1.96806 h 1.06828 v 2.25044 h 2.2225 v -2.25044 h 2.2327 v -1.96806 h -2.2327 V 8.924555 c 0,-0.709697 0.44485,-0.873821 0.98968,-0.873821 0.44868,0 0.85843,0.148538 1.21099,0.341972 V 6.511179 c -0.5128,-0.306183 -1.10577,-0.499617 -1.92309,-0.499617 -1.4904,0 -2.50008,0.596356 -2.50008,2.594867 z m 5.31807,6.081131 h 2.19392 V 6.154848 h -2.19392 z m 6.33474,0.01538 v 0.42202 c 0,0.64197 0.49534,0.93083 1.06333,0.93083 0.4219,0 0.76264,-0.08022 1.11963,-0.20864 v 1.9371 c -0.45436,0.14443 -0.9736,0.24074 -1.75253,0.24074 -0.87627,0 -1.45393,-0.22469 -1.90829,-0.67403 -0.45436,-0.44939 -0.73573,-1.13947 -0.73573,-2.08636 v -0.54561 h -1.07199 v -1.91923 h 1.0223 V 6.197203 h 2.28353 v 6.600487 h 1.78068 L 74.54067,6.287758 C 74.31676,5.765354 73.94185,5.504152 73.53125,5.504152 c -0.31578,0 -0.82197,0.179965 -1.13784,0.371028 l -0.80278,-1.6911 c 0.61584,-0.366115 1.47372,-0.585894 2.34223,-0.585894 1.53543,0 2.26967,1.307238 2.53095,1.977927 L 80,14.6846 l -2.28183,0.003 -2.06499,-5.809171 -2.2643,5.827261 h -1.16194 l -2.16359,-0.0027 z m -3.86226,2.40642 c 0,-0.75438 -0.61584,-1.36594 -1.3755,-1.36594 -0.7597,0 -1.37549,0.61156 -1.37549,1.36594 0,0.75443 0.61579,1.36595 1.37549,1.36595 0.75966,0 1.3755,-0.61152 1.3755,-1.36595 z M 52.68077,14.8912 c -2.61489,0 -4.5991,-1.99986 -4.5991,-4.46368 v -0.03198 c 0,-2.463866 1.96856,-4.431754 4.56775,-4.431754 2.6148,0 4.55636,1.999909 4.55636,4.463734 v 0.03193 c 0,2.46386 -1.9259,4.43175 -4.52501,4.43175 z M 52.6437,7.860179 c -1.32252,0 -2.39472,1.141377 -2.39472,2.549211 0,1.40787 1.0722,2.54921 2.39472,2.54921 1.32257,0 2.39477,-1.14134 2.39477,-2.54921 0,-1.407834 -1.0722,-2.549211 -2.39477,-2.549211 z m -9.04917,7.028951 c -1.41,0 -2.26984,-0.50424 -2.8551,-1.30017 v 1.141 H 38.54854 V 3.650155 h 2.23359 v 3.619006 c 0.56947,-0.684496 1.36035,-1.273524 2.64163,-1.273524 2.00886,0 4.03034,1.560096 4.03034,4.409643 v 0.03181 c 0,2.84954 -1.93746,4.45204 -3.85957,4.45204 z M 42.97699,7.918375 c -1.24955,0 -2.26247,1.129475 -2.26247,2.522775 0,1.39326 1.01292,2.52274 2.26247,2.52274 1.2495,0 2.26242,-1.12948 2.26242,-2.52274 0,-1.3933 -1.01292,-2.522775 -2.26242,-2.522775 z" /></clipPath><clipPath
       id="clipPath34"
       clipPathUnits="userSpaceOnUse"><path
         id="path32"
         d="M 0,0 H 80 V 24 H 0 Z" /></clipPath></defs><g
     transform="matrix(1.3333333,0,0,-1.3333333,0,31.498866)"
     id="g10"><g
       id="g12" /><g
       id="g14"><g
         clip-path="url(#clipPath20)"
         id="g16"><g
           id="g22" /><g
           id="g48"><g
             style="opacity:0.2"
             id="g46"
             clip-path="url(#clipPath26)"><g
               id="g36" /><g
               id="g44"><g
                 id="g42"
                 clip-path="url(#clipPath30)"><g
                   id="g40"
                   clip-path="url(#clipPath34)"><path
                     id="path38"
                     style="fill:#ffffff;fill-opacity:1;fill-rule:nonzero;stroke:none"
                     d="M -5,28.62415 H 85 V -4.624155 H -5 Z" /></g></g></g></g></g></g></g></g></svg>