<?xml version="1.0" encoding="UTF-8" standalone="no"?>
<svg
   xmlns:dc="http://purl.org/dc/elements/1.1/"
   xmlns:cc="http://creativecommons.org/ns#"
   xmlns:rdf="http://www.w3.org/1999/02/22-rdf-syntax-ns#"
   xmlns:svg="http://www.w3.org/2000/svg"
   xmlns="http://www.w3.org/2000/svg"
   viewBox="0 0 106.1889 21.745653"
   height="21.745653"
   width="106.1889"
   xml:space="preserve"
   id="svg2"
   version="1.1"><metadata
     id="metadata8"><rdf:RDF><cc:Work
         rdf:about=""><dc:format>image/svg+xml</dc:format><dc:type
           rdf:resource="http://purl.org/dc/dcmitype/StillImage" /></cc:Work></rdf:RDF></metadata><defs
     id="defs6"><clipPath
       id="clipPath20"
       clipPathUnits="userSpaceOnUse"><path
         style="clip-rule:evenodd"
         id="path18"
         d="M -600,2626 H 840 V -374 H -600 Z" /></clipPath><clipPath
       id="clipPath26"
       clipPathUnits="userSpaceOnUse"><path
         id="path24"
         d="M 0,0 H 80 V 18 H 0 Z" /></clipPath><clipPath
       id="clipPath30"
       clipPathUnits="userSpaceOnUse"><path
         style="clip-rule:evenodd"
         id="path28"
         d="m 42.50353,9.308908 c -0.68202,0 -1.17311,-0.223194 -1.6716,-0.450084 V 3.712941 c 0.47799,-0.046723 0.75059,-0.046723 1.20404,-0.046723 1.63664,0 1.8605,0.749244 1.8605,1.793614 v 2.458823 c 0,0.770757 -0.2558,1.390253 -1.39294,1.390253 z M 31.63697,9.589916 c -1.13546,0 -1.39428,-0.622185 -1.39428,-1.392941 V 7.76437 h 2.78723 v 0.432605 c 0,0.770756 -0.25883,1.392941 -1.39295,1.392941 z M 10.58622,4.232941 c 0,-0.609412 0.28773,-0.925714 0.9237,-0.925714 0.68235,0 1.08571,0.221849 1.58386,0.45042 v 1.219832 h -1.49176 c -0.70589,0 -1.0158,-0.130756 -1.0158,-0.744538 z m 42.4884,5.075967 c -1.13714,0 -1.53109,-0.619496 -1.53109,-1.390253 v -2.81647 c 0,-0.773446 0.39395,-1.394622 1.53109,-1.394622 1.13378,0 1.53109,0.621176 1.53109,1.394622 v 2.81647 c 0,0.770757 -0.39731,1.390253 -1.53109,1.390253 z M 5.013109,1.076303 H 1.670588 V 9.155966 H 0 v 2.785214 h 1.670588 v 1.67126 c 0,2.27159 0.943194,3.62285 3.622185,3.62285 H 7.523361 V 14.45008 H 6.129748 c -1.043361,0 -1.112605,-0.38924 -1.112605,-1.11529 L 5.013113,11.94118 H 7.5395 L 7.243701,9.155966 H 5.013113 v -8.079663 0 z M 16.43765,1.055462 h -2.78589 l -0.12033,0.70353 c -1.27261,-0.70353 -2.40807,-0.8178155 -3.1563,-0.8178155 -2.043701,0 -3.131433,1.3630255 -3.131433,3.2484035 0,2.223529 1.269244,3.017143 3.539493,3.017143 h 2.31059 v 0.480672 c 0,1.135798 -0.13042,1.468571 -1.87832,1.468571 H 8.356975 l 0.279664,2.785214 h 3.124031 c 3.83597,0 4.67698,-1.21076 4.67698,-4.27597 z m 9.47361,7.896471 C 24.17748,9.248739 23.68,9.314286 22.84571,9.314286 c -1.49848,0 -1.95092,-0.330757 -1.95092,-1.600673 V 5.30958 c 0,-1.270925 0.45244,-1.602017 1.95092,-1.602017 0.83429,0 1.33177,0.065882 3.06555,0.363698 V 1.355966 C 24.39261,1.015462 23.4037,0.9260504 22.56739,0.9260504 c -3.58924,0 -5.01512,1.8847056 -5.01512,4.6080676 v 1.950588 c 0,2.725044 1.42588,4.613114 5.01512,4.613114 0.83631,0 1.82522,-0.09009 3.34387,-0.43093 z M 36.37244,5.534118 H 30.24269 V 5.30958 c 0,-1.270925 0.45311,-1.602017 1.95092,-1.602017 1.34723,0 2.16874,0.065882 3.89916,0.363698 V 1.355966 C 34.4242,1.015462 33.55496,0.9260504 31.91664,0.9260504 c -3.58925,0 -5.01647,1.8847056 -5.01647,4.6080676 V 7.76437 c 0,2.38185 1.05949,4.33345 4.7368,4.33345 3.67799,0 4.73547,-1.92874 4.73547,-4.33345 V 5.534118 Z M 47.23899,5.483025 c 0,-2.632269 -0.75328,-4.5515964 -5.31596,-4.5515964 -1.64639,0 -2.61412,0.1448744 -4.43261,0.4245374 V 16.39899 l 3.34151,0.55664 v -5.26185 c 0.72236,0.26824 1.65715,0.40404 2.5079,0.40404 3.34286,0 3.89916,-1.49681 3.89916,-3.900845 z M 57.95126,5.42521 c 0,-2.270252 -0.93882,-4.4722688 -4.86555,-4.4722688 -3.92907,0 -4.88504,2.2020168 -4.88504,4.4722688 v 2.191933 c 0,2.270924 0.95597,4.473277 4.88504,4.473277 3.92673,0 4.86555,-2.202353 4.86555,-4.473277 V 5.42521 Z m 10.70387,0 c 0,-2.270252 -0.9395,-4.4722688 -4.86488,-4.4722688 -3.92941,0 -4.88571,2.2020168 -4.88571,4.4722688 v 2.191933 c 0,2.270924 0.9563,4.473277 4.88571,4.473277 3.92538,0 4.86488,-2.202353 4.86488,-4.473277 z M 79.64168,1.076303 h -3.62319 l -3.0632,5.106554 V 1.076303 H 69.61277 V 16.39899 l 3.34252,0.55664 V 7.091429 l 3.0632,4.849751 h 3.62319 L 76.29681,6.648739 Z M 63.77849,9.308908 c -1.13513,0 -1.52908,-0.619496 -1.52908,-1.390253 v -2.81647 c 0,-0.773446 0.39395,-1.394622 1.52908,-1.394622 1.13378,0 1.53479,0.621176 1.53479,1.394622 v 2.81647 c 0,0.770757 -0.40101,1.390253 -1.53479,1.390253 z" /></clipPath><clipPath
       id="clipPath34"
       clipPathUnits="userSpaceOnUse"><path
         id="path32"
         d="M 0,0 H 80 V 18 H 0 Z" /></clipPath></defs><g
     transform="matrix(1.3333333,0,0,-1.3333333,0,22.980386)"
     id="g10"><g
       id="g12" /><g
       id="g14"><g
         clip-path="url(#clipPath20)"
         id="g16"><g
           id="g22" /><g
           id="g48"><g
             style="opacity:0.2"
             id="g46"
             clip-path="url(#clipPath26)"><g
               id="g36" /><g
               id="g44"><g
                 id="g42"
                 clip-path="url(#clipPath30)"><g
                   id="g40"
                   clip-path="url(#clipPath34)"><path
                     id="path38"
                     style="fill:#ffffff;fill-opacity:1;fill-rule:nonzero;stroke:none"
                     d="M -5,22.23529 H 84.64168 V -4.07395 H -5 Z" /></g></g></g></g></g></g></g></g></svg>