<?xml version="1.0" encoding="UTF-8" standalone="no"?>
<svg
   xmlns:dc="http://purl.org/dc/elements/1.1/"
   xmlns:cc="http://creativecommons.org/ns#"
   xmlns:rdf="http://www.w3.org/1999/02/22-rdf-syntax-ns#"
   xmlns:svg="http://www.w3.org/2000/svg"
   xmlns="http://www.w3.org/2000/svg"
   viewBox="0 0 106.66665 37.046135"
   height="37.046135"
   width="106.66666"
   xml:space="preserve"
   id="svg2"
   version="1.1"><metadata
     id="metadata8"><rdf:RDF><cc:Work
         rdf:about=""><dc:format>image/svg+xml</dc:format><dc:type
           rdf:resource="http://purl.org/dc/dcmitype/StillImage" /></cc:Work></rdf:RDF></metadata><defs
     id="defs6"><clipPath
       id="clipPath20"
       clipPathUnits="userSpaceOnUse"><path
         style="clip-rule:evenodd"
         id="path18"
         d="M -440,2631 H 1000 V -369 H -440 Z" /></clipPath><clipPath
       id="clipPath26"
       clipPathUnits="userSpaceOnUse"><path
         id="path24"
         d="M 0,0 H 80 V 28 H 0 Z" /></clipPath><clipPath
       id="clipPath30"
       clipPathUnits="userSpaceOnUse"><path
         style="clip-rule:evenodd"
         id="path28"
         d="m 79.33162,17.57056 c 0.41869,0.17418 0.4517,0.2051 0.29729,0.64867 -0.88479,2.53506 -4.21437,3.90424 -7.05017,2.71658 -2.23701,-0.93675 -3.85661,-3.31163 -3.85661,-5.9677 0,-3.57924 2.57285,-6.762074 6.06769,-6.762074 1.60233,0 2.74121,0.222451 3.75581,0.868449 0.2171,0.202876 1.4426,1.187225 1.45434,1.397885 0.0024,0.04872 -0.17235,-0.10411 -0.43907,-0.25204 C 78.77137,9.803235 77.5873,9.643071 76.65909,9.626164 74.7803,9.591684 73.2801,10.87723 72.30138,12.40302 c -0.62958,0.98235 -1.03698,2.10506 -1.13799,3.31097 -0.15552,1.85324 0.29552,3.98454 2.38033,4.50797 1.387,0.34814 2.70067,-0.432 3.21107,-1.7736 0.23172,-0.60863 0.09193,-0.92518 -0.46876,-1.15719 l -5.01476,-2.1035 1.70954,-0.10989 c 2.03652,0.8482 4.31518,1.64436 6.35081,2.49278 z M 63.89279,27.8923 h 3.74363 C 67.1156,27.55306 66.94059,27.41292 66.7164,27.057 66.55602,26.80162 66.51481,26.31757 66.48579,25.8809 66.26714,20.86106 66.40095,15.80319 66.36882,10.78247 66.38965,9.414391 66.92509,9.575223 68.69732,9.627054 68.43016,9.399709 67.99662,8.950357 67.66078,8.756825 c -1.59811,0 -3.12467,0.034702 -4.723,0.034702 0.60256,0.624198 0.91093,1.026613 0.86972,2.588443 0.03168,5.24607 -0.17456,10.28103 0.14333,15.33334 -0.74921,-0.0218 -1.43019,-0.0109 -2.17985,-0.03226 0.70757,0.36616 1.37703,0.88247 2.12181,1.21125 z M 57.12484,7.898163 C 57.39444,7.700182 57.67468,7.507316 57.96378,7.324017 59.53663,6.323654 60.03796,5.100839 59.90991,3.972344 59.75573,2.611388 58.45579,1.538728 56.2292,1.403033 53.85175,1.257995 50.65175,2.20319 51.24434,5.343089 c 0.31568,1.67261 2.52588,2.536388 4.35372,2.59734 0.50575,0.016906 1.02081,-0.025582 1.52678,-0.042266 z m 5.37453,13.068567 -1.60099,-1.04085 h -1.82253 c 0.7696,-0.53989 1.35953,-1.3178 1.68473,-2.18425 0.34603,-0.92317 0.39433,-1.946 0.04276,-2.88808 C 60.47149,13.9653 59.79848,13.20029 58.8098,12.61902 58.24822,12.28824 57.96422,11.86981 57.93298,11.46762 57.84149,10.29485 59.26858,9.44242 60.0929,8.822448 61.89858,7.465496 62.60349,5.238759 61.409,3.088101 60.26768,1.034209 57.54974,0.1174872 54.66321,0.1076994 51.07775,0.1234934 48.81616,1.772969 48.69698,4.018837 c -0.15419,2.901653 2.81143,4.283075 5.49038,4.598066 0.75032,0.088091 1.42067,0.074076 2.05137,0.028919 -0.94859,0.626867 -1.30282,1.904178 -0.819,2.757278 0.12583,0.22246 0.04586,0.14593 -0.19273,0.10967 -2.19181,-0.33256 -4.44898,1.10381 -4.97688,3.27471 -0.26827,1.10158 -0.10146,2.25254 0.31612,3.15413 0.90739,1.95691 2.9253,3.04425 5.1643,3.04425 2.32894,0 4.48553,-8.9e-4 6.76883,-0.01913 z m -4.03006,-4.77269 c 0.28533,-1.73779 -0.15441,-3.38549 -1.71863,-3.81971 -1.60144,-0.44491 -3.37212,0.80594 -3.94212,3.04558 -0.62427,2.4563 0.02171,4.01569 1.53033,4.48639 1.78619,0.55813 3.69511,-1.05998 4.13042,-3.71226 z m -16.33359,5.13573 c 4.29634,0 6.53755,-2.86829 6.73804,-6.22797 0.19915,-3.34767 -2.54958,-6.342528 -5.91373,-6.701564 -4.04513,-0.430666 -7.57764,2.367774 -7.57764,6.448634 0,3.56968 3.03363,6.4809 6.75333,6.4809 z m 4.05975,-6.65886 C 46.44203,12.2086 45.61927,9.921802 43.41882,9.410609 41.16741,8.887404 38.78088,10.76311 38.18474,13.9495 c -0.65418,3.49538 0.42689,5.79708 2.55202,6.36322 2.51746,0.67025 5.08388,-1.88194 5.45871,-5.64181 z M 27.4091,21.32977 c 4.34708,0 6.61487,-2.86829 6.81802,-6.22797 0.20137,-3.34767 -2.57994,-6.342528 -5.98374,-6.701564 -4.09297,-0.430666 -7.66735,2.367774 -7.66735,6.448634 0,3.56968 3.06973,6.4809 6.83307,6.4809 z m 4.10805,-6.65886 c 0.249,-2.46231 -0.58329,-4.749108 -2.80944,-5.260301 -2.27799,-0.523205 -4.6931,1.352501 -5.2961,4.538891 -0.66193,3.49538 0.43198,5.79708 2.58236,6.36322 2.54737,0.67025 5.14348,-1.88194 5.52318,-5.64181 z m -14.91071,8.45471 1.95411,2.0005 C 15.24359,27.88318 9.554274,28.24533 5.784507,26.33114 2.505649,24.66631 0.121771,21.36024 0.00480344,17.66778 -0.1179239,13.78133 2.131486,10.7075 4.414347,9.161241 8.182342,6.609948 14.71502,7.177866 18.65049,9.172809 l -8.8e-4,0.370159 h 4.4e-4 v 4.073082 l 0.91603,1.07711 h -5.73297 l -2.12313,-1.20035 4.12332,0.12324 V 10.02613 C 15.8333,9.516496 15.84,9.434634 15.0039,9.163688 13.82758,8.853369 12.49929,8.792417 11.28575,8.8943 7.168401,9.239099 4.029772,12.50557 3.286319,16.5811 c -0.70535,3.8662 1.110084,7.52352 4.180039,9.03241 1.49909,0.73676 3.297912,1.08312 5.247592,0.45625 1.22218,-0.39263 2.33204,-1.10047 3.29924,-2.07569 l -0.67367,-1.23016 z" /></clipPath><clipPath
       id="clipPath34"
       clipPathUnits="userSpaceOnUse"><path
         id="path32"
         d="M 0,0 H 80 V 28 H 0 Z" /></clipPath></defs><g
     transform="matrix(1.3333333,0,0,-1.3333333,0,37.189732)"
     id="g10"><g
       id="g12" /><g
       id="g14"><g
         clip-path="url(#clipPath20)"
         id="g16"><g
           id="g22" /><g
           id="g48"><g
             style="opacity:0.2"
             id="g46"
             clip-path="url(#clipPath26)"><g
               id="g36" /><g
               id="g44"><g
                 id="g42"
                 clip-path="url(#clipPath30)"><g
                   id="g40"
                   clip-path="url(#clipPath34)"><path
                     id="path38"
                     style="fill:#ffffff;fill-opacity:1;fill-rule:nonzero;stroke:none"
                     d="M -5,32.8923 H 85 V -4.892301 H -5 Z" /></g></g></g></g></g></g></g></g></svg>